<svg xmlns="http://www.w3.org/2000/svg" xmlns:xlink="http://www.w3.org/1999/xlink" width="500" zoomAndPan="magnify" viewBox="0 0 375 374.999991" height="500" preserveAspectRatio="xMidYMid meet" version="1.0"><defs><clipPath id="ec29d14f1a"><path d="M 112.5 78.695312 L 262.5 78.695312 L 262.5 228.695312 L 112.5 228.695312 Z M 112.5 78.695312 " clip-rule="nonzero"/></clipPath></defs><g clip-path="url(#ec29d14f1a)"><path fill="#ffffff" d="M 121.992188 78.695312 L 252.984375 78.695312 C 253.601562 78.695312 254.207031 78.753906 254.8125 78.875 C 255.414062 78.996094 256 79.171875 256.566406 79.410156 C 257.132812 79.644531 257.671875 79.933594 258.183594 80.277344 C 258.695312 80.617188 259.167969 81.007812 259.601562 81.441406 C 260.035156 81.875 260.425781 82.351562 260.765625 82.863281 C 261.105469 83.375 261.394531 83.914062 261.628906 84.484375 C 261.863281 85.050781 262.042969 85.636719 262.164062 86.242188 C 262.28125 86.84375 262.34375 87.453125 262.34375 88.070312 L 262.34375 219.320312 C 262.34375 219.9375 262.28125 220.546875 262.164062 221.148438 C 262.042969 221.753906 261.863281 222.339844 261.628906 222.910156 C 261.394531 223.476562 261.105469 224.015625 260.765625 224.527344 C 260.425781 225.039062 260.035156 225.515625 259.601562 225.949219 C 259.167969 226.386719 258.695312 226.773438 258.183594 227.117188 C 257.671875 227.457031 257.132812 227.746094 256.566406 227.980469 C 256 228.21875 255.414062 228.394531 254.8125 228.515625 C 254.207031 228.636719 253.601562 228.695312 252.984375 228.695312 L 121.992188 228.695312 C 121.378906 228.695312 120.769531 228.636719 120.167969 228.515625 C 119.5625 228.394531 118.980469 228.21875 118.410156 227.980469 C 117.84375 227.746094 117.304688 227.457031 116.792969 227.117188 C 116.28125 226.773438 115.808594 226.386719 115.375 225.949219 C 114.941406 225.515625 114.554688 225.039062 114.210938 224.527344 C 113.871094 224.015625 113.582031 223.476562 113.347656 222.910156 C 113.113281 222.339844 112.933594 221.753906 112.816406 221.148438 C 112.695312 220.546875 112.636719 219.9375 112.636719 219.320312 L 112.636719 88.070312 C 112.636719 87.453125 112.695312 86.84375 112.816406 86.242188 C 112.933594 85.636719 113.113281 85.050781 113.347656 84.484375 C 113.582031 83.914062 113.871094 83.375 114.210938 82.863281 C 114.554688 82.351562 114.941406 81.875 115.375 81.441406 C 115.808594 81.007812 116.28125 80.617188 116.792969 80.277344 C 117.304688 79.933594 117.84375 79.644531 118.410156 79.410156 C 118.980469 79.171875 119.5625 78.996094 120.167969 78.875 C 120.769531 78.753906 121.378906 78.695312 121.992188 78.695312 Z M 121.992188 78.695312 " fill-opacity="1" fill-rule="nonzero"/></g><path fill="#000000" d="M 155.984375 197.289062 L 149.292969 197.289062 L 147.730469 201.433594 L 145.089844 201.433594 L 151.054688 186 L 154.222656 186 L 160.191406 201.433594 L 157.546875 201.433594 Z M 155.082031 194.929688 L 152.640625 188.46875 L 150.195312 194.929688 Z M 155.082031 194.929688 " fill-opacity="1" fill-rule="nonzero"/><path fill="#000000" d="M 166.332031 184.457031 L 163.824219 184.457031 L 163.824219 201.4375 L 166.332031 201.4375 Z M 166.332031 184.457031 " fill-opacity="1" fill-rule="nonzero"/><path fill="#000000" d="M 178.0625 189.109375 L 178.0625 191.644531 C 177.84375 191.621094 177.644531 191.601562 177.316406 191.601562 C 175.046875 191.601562 173.308594 192.878906 173.308594 195.878906 L 173.308594 201.433594 L 170.824219 201.433594 L 170.824219 189.304688 L 173.308594 189.304688 L 173.308594 191.710938 C 174.035156 190.015625 175.421875 189.042969 177.335938 189.042969 C 177.644531 189.042969 177.886719 189.066406 178.0625 189.109375 Z M 178.0625 189.109375 " fill-opacity="1" fill-rule="nonzero"/><path fill="#000000" d="M 192.554688 189.304688 L 192.554688 201.4375 L 190.066406 201.4375 L 190.066406 199.40625 C 189.1875 200.796875 187.734375 201.699219 185.839844 201.699219 C 182.605469 201.699219 180.25 199.078125 180.25 195.371094 C 180.25 191.667969 182.648438 189.046875 185.820312 189.046875 C 187.734375 189.046875 189.1875 189.992188 190.066406 191.382812 L 190.066406 189.308594 L 192.554688 189.308594 Z M 190.089844 195.371094 C 190.089844 193.054688 188.484375 191.425781 186.371094 191.425781 C 184.253906 191.425781 182.761719 193.054688 182.761719 195.371094 C 182.761719 197.683594 184.277344 199.316406 186.371094 199.316406 C 188.460938 199.316406 190.089844 197.710938 190.089844 195.371094 Z M 190.089844 195.371094 " fill-opacity="1" fill-rule="nonzero"/><path fill="#000000" d="M 215.292969 193.652344 L 215.292969 201.4375 L 212.804688 201.4375 L 212.804688 194.179688 C 212.804688 192.375 212.078125 191.425781 210.402344 191.425781 C 208.445312 191.425781 207.433594 192.945312 207.433594 195.148438 L 207.453125 201.433594 L 204.945312 201.433594 L 204.945312 194.179688 C 204.945312 192.371094 204.21875 191.425781 202.546875 191.425781 C 200.585938 191.425781 199.597656 192.945312 199.597656 195.148438 L 199.597656 201.433594 L 197.109375 201.433594 L 197.109375 189.304688 L 199.597656 189.304688 L 199.597656 191.246094 C 200.433594 189.855469 201.621094 189.039062 203.359375 189.039062 C 205.210938 189.039062 206.507812 189.941406 207.101562 191.574219 C 207.914062 190.011719 209.28125 189.039062 211.195312 189.039062 C 213.75 189.039062 215.289062 190.761719 215.289062 193.648438 " fill-opacity="1" fill-rule="nonzero"/><path fill="#000000" d="M 229.886719 199.078125 L 229.886719 201.4375 L 219.675781 201.4375 L 219.675781 199.078125 L 226.582031 191.667969 L 220.070312 191.667969 L 220.070312 189.308594 L 229.773438 189.308594 L 229.773438 191.667969 L 222.839844 199.078125 Z M 229.886719 199.078125 " fill-opacity="1" fill-rule="nonzero"/><path fill="#000000" d="M 148.871094 160.878906 C 149.824219 160.878906 150.34375 160.324219 150.34375 159.3125 C 150.34375 158.296875 149.820312 157.734375 148.871094 157.734375 C 147.925781 157.734375 147.402344 158.292969 147.402344 159.3125 C 147.402344 160.328125 147.925781 160.878906 148.871094 160.878906 Z M 148.871094 160.878906 " fill-opacity="1" fill-rule="nonzero"/><path fill="#000000" d="M 221.242188 172.015625 L 214 172.015625 C 213.375 172.015625 212.886719 171.84375 212.507812 171.484375 C 212.132812 171.128906 211.953125 170.65625 211.953125 170.046875 L 211.953125 162.507812 L 209.464844 162.507812 L 209.464844 174.34375 C 209.464844 175.21875 209.277344 175.925781 208.902344 176.449219 C 208.546875 176.949219 208.082031 177.195312 207.484375 177.195312 L 206.871094 177.195312 L 206.871094 179.550781 L 207.527344 179.550781 C 208.9375 179.550781 210.042969 179.0625 210.8125 178.105469 C 211.570312 177.160156 211.953125 175.855469 211.953125 174.226562 L 211.953125 173.589844 C 212.367188 173.996094 212.933594 174.265625 213.648438 174.328125 C 213.894531 174.351562 214.382812 174.371094 214.632812 174.371094 L 223.847656 174.371094 L 223.847656 157.6875 L 221.246094 157.6875 L 221.246094 172.015625 Z M 221.242188 172.015625 " fill-opacity="1" fill-rule="nonzero"/><path fill="#000000" d="M 229.886719 157.6875 L 227.28125 157.6875 L 227.28125 174.371094 L 229.886719 174.371094 Z M 229.886719 157.6875 " fill-opacity="1" fill-rule="nonzero"/><path fill="#000000" d="M 199.289062 162.265625 C 197.582031 162.265625 196.179688 162.890625 195.125 164.117188 C 194.074219 165.332031 193.542969 166.910156 193.542969 168.800781 C 193.542969 170.089844 193.746094 171.171875 194.140625 172.015625 L 152.210938 172.015625 C 151.585938 172.015625 151.09375 171.84375 150.71875 171.484375 C 150.34375 171.128906 150.164062 170.65625 150.164062 170.046875 L 150.164062 162.507812 L 147.675781 162.507812 L 147.675781 174.339844 C 147.675781 175.21875 147.488281 175.925781 147.113281 176.445312 C 146.757812 176.949219 146.292969 177.191406 145.695312 177.191406 L 145.089844 177.191406 L 145.089844 179.550781 L 145.746094 179.550781 C 147.152344 179.546875 148.25 179.0625 149.023438 178.105469 C 149.777344 177.160156 150.160156 175.859375 150.160156 174.226562 L 150.160156 173.59375 C 150.578125 173.996094 151.144531 174.269531 151.855469 174.332031 C 152.101562 174.351562 152.59375 174.375 152.839844 174.375 L 198.355469 174.375 C 200.222656 174.375 201.789062 173.820312 203.015625 172.726562 C 204.25 171.625 204.875 170.09375 204.875 168.171875 C 204.875 166.25 204.351562 164.886719 203.324219 163.84375 C 202.296875 162.796875 200.9375 162.265625 199.292969 162.265625 M 201.179688 170.9375 C 200.464844 171.652344 199.515625 172.015625 198.359375 172.015625 L 196.84375 172.015625 C 196.382812 171.308594 196.148438 170.230469 196.148438 168.800781 C 196.148438 167.503906 196.457031 166.46875 197.058594 165.710938 C 197.65625 164.964844 198.386719 164.601562 199.292969 164.601562 C 200.195312 164.601562 200.882812 164.910156 201.425781 165.542969 C 201.976562 166.179688 202.25 167.054688 202.25 168.148438 C 202.25 169.296875 201.902344 170.207031 201.175781 170.9375 " fill-opacity="1" fill-rule="nonzero"/><path fill="#000000" d="M 178.546875 120.234375 C 181.605469 121.25 184.597656 122.355469 187.523438 123.546875 C 190.445312 122.355469 193.4375 121.25 196.492188 120.238281 C 199.410156 121.59375 202.257812 123.039062 205.03125 124.558594 C 205.226562 122.878906 205.417969 121.203125 205.613281 119.523438 C 202.753906 117.890625 199.816406 116.335938 196.800781 114.863281 C 193.636719 115.976562 190.542969 117.183594 187.523438 118.476562 C 184.5 117.183594 181.40625 115.976562 178.238281 114.863281 C 175.21875 116.332031 172.273438 117.886719 169.410156 119.519531 C 169.617188 121.199219 169.828125 122.875 170.035156 124.550781 C 172.800781 123.035156 175.636719 121.59375 178.546875 120.234375 Z M 178.546875 120.234375 " fill-opacity="1" fill-rule="nonzero"/><path fill="#000000" d="M 187.519531 111.027344 C 190.683594 112.21875 193.777344 113.5 196.804688 114.867188 C 196.898438 113.179688 196.996094 111.492188 197.09375 109.804688 C 193.976562 108.328125 190.789062 106.945312 187.523438 105.648438 C 184.253906 106.945312 181.070312 108.328125 177.953125 109.800781 C 178.050781 111.488281 178.148438 113.175781 178.242188 114.863281 C 181.265625 113.5 184.359375 112.21875 187.519531 111.027344 Z M 187.519531 111.027344 " fill-opacity="1" fill-rule="nonzero"/><path fill="#000000" d="M 179.265625 132.730469 C 176.582031 134.183594 173.984375 135.707031 171.460938 137.300781 L 172.082031 142.332031 C 174.503906 140.855469 177.003906 139.441406 179.570312 138.101562 C 181.324219 138.769531 183.042969 139.484375 184.742188 140.21875 L 184.742188 148.726562 L 190.269531 148.726562 L 190.269531 140.234375 C 191.976562 139.496094 193.699219 138.777344 195.460938 138.105469 C 196.285156 138.535156 197.101562 138.96875 197.914062 139.414062 C 199.632812 140.355469 201.324219 141.332031 202.976562 142.335938 C 203.171875 140.65625 203.367188 138.980469 203.558594 137.304688 C 201.042969 135.710938 198.445312 134.183594 195.769531 132.734375 C 192.945312 133.867188 190.195312 135.082031 187.519531 136.375 C 184.839844 135.082031 182.085938 133.867188 179.261719 132.734375 " fill-opacity="1" fill-rule="nonzero"/><path fill="#000000" d="M 205.023438 124.554688 C 201.96875 125.503906 198.980469 126.546875 196.0625 127.671875 C 193.289062 126.21875 190.4375 124.839844 187.515625 123.546875 C 184.59375 124.839844 181.746094 126.214844 178.976562 127.671875 C 176.050781 126.546875 173.050781 125.503906 169.988281 124.554688 C 167.226562 126.179688 164.542969 127.875 161.949219 129.644531 C 162.25 131.304688 162.554688 132.96875 162.859375 134.632812 C 165.363281 132.984375 167.945312 131.410156 170.605469 129.902344 C 173.554688 130.757812 176.445312 131.703125 179.265625 132.730469 C 181.949219 131.386719 184.695312 130.117188 187.515625 128.925781 C 190.335938 130.117188 193.089844 131.386719 195.773438 132.730469 C 198.589844 131.703125 201.46875 130.757812 204.40625 129.898438 C 207.082031 131.410156 209.675781 132.988281 212.195312 134.636719 C 212.488281 132.972656 212.777344 131.308594 213.066406 129.640625 C 210.46875 127.875 207.789062 126.175781 205.023438 124.554688 " fill-opacity="1" fill-rule="nonzero"/></svg>